<svg width="290" height="87" viewBox="0 0 290 87" fill="none" xmlns="http://www.w3.org/2000/svg">
<path d="M107.248 58.396C105.987 58.396 105.019 58.0587 104.344 57.384C103.699 56.7093 103.376 55.7267 103.376 54.436V39.872C103.376 37.2613 104.652 35.956 107.204 35.956C109.521 35.956 110.783 37.0707 110.988 39.3C111.633 38.244 112.513 37.408 113.628 36.792C114.772 36.176 116.092 35.868 117.588 35.868C119.055 35.868 120.316 36.1907 121.372 36.836C122.457 37.4813 123.279 38.4787 123.836 39.828C124.569 38.5667 125.567 37.5987 126.828 36.924C128.089 36.22 129.483 35.868 131.008 35.868C133.531 35.868 135.393 36.6307 136.596 38.156C137.828 39.652 138.444 41.9987 138.444 45.196V54.436C138.444 55.7267 138.092 56.7093 137.388 57.384C136.713 58.0587 135.745 58.396 134.484 58.396C133.252 58.396 132.299 58.0587 131.624 57.384C130.949 56.7093 130.612 55.7267 130.612 54.436V45.416C130.612 44.1547 130.421 43.2453 130.04 42.688C129.659 42.1307 129.028 41.852 128.148 41.852C127.063 41.852 126.227 42.2333 125.64 42.996C125.083 43.7587 124.804 44.844 124.804 46.252V54.436C124.804 55.7267 124.467 56.7093 123.792 57.384C123.117 58.0587 122.149 58.396 120.888 58.396C119.627 58.396 118.659 58.0587 117.984 57.384C117.309 56.7093 116.972 55.7267 116.972 54.436V45.416C116.972 44.1547 116.781 43.2453 116.4 42.688C116.019 42.1307 115.388 41.852 114.508 41.852C113.452 41.852 112.631 42.2333 112.044 42.996C111.487 43.7587 111.208 44.844 111.208 46.252V54.436C111.208 57.076 109.888 58.396 107.248 58.396ZM150.515 58.484C148.843 58.484 147.362 58.176 146.071 57.56C144.81 56.944 143.812 56.108 143.079 55.052C142.375 53.9667 142.023 52.7347 142.023 51.356C142.023 49.8013 142.434 48.5693 143.255 47.66C144.076 46.7213 145.396 46.0613 147.215 45.68C149.034 45.2693 151.454 45.064 154.475 45.064H156.147V44.448C156.147 43.392 155.868 42.644 155.311 42.204C154.783 41.764 153.859 41.544 152.539 41.544C151.806 41.544 150.999 41.632 150.119 41.808C149.268 41.9547 148.3 42.2333 147.215 42.644C146.247 42.996 145.44 42.9813 144.795 42.6C144.15 42.2187 143.724 41.676 143.519 40.972C143.343 40.2387 143.416 39.52 143.739 38.816C144.091 38.0827 144.751 37.54 145.719 37.188C147.127 36.6893 148.418 36.352 149.591 36.176C150.794 35.9707 151.894 35.868 152.891 35.868C156.499 35.868 159.168 36.6453 160.899 38.2C162.659 39.7547 163.539 42.204 163.539 45.548V54.436C163.539 57.076 162.336 58.396 159.931 58.396C157.643 58.396 156.426 57.2227 156.279 54.876C155.868 55.9907 155.164 56.8707 154.167 57.516C153.17 58.1613 151.952 58.484 150.515 58.484ZM152.275 53.38C153.36 53.38 154.27 53.028 155.003 52.324C155.766 51.62 156.147 50.696 156.147 49.552V48.76H154.475C152.744 48.76 151.468 48.9507 150.647 49.332C149.855 49.684 149.459 50.256 149.459 51.048C149.459 51.7227 149.694 52.28 150.163 52.72C150.662 53.16 151.366 53.38 152.275 53.38ZM171.871 66.316C169.29 66.316 167.999 64.996 167.999 62.356V39.872C167.999 37.2613 169.275 35.956 171.827 35.956C174.144 35.956 175.42 37.0413 175.655 39.212C176.242 38.1853 177.122 37.3787 178.295 36.792C179.498 36.176 180.818 35.868 182.255 35.868C184.103 35.868 185.731 36.3227 187.139 37.232C188.576 38.1413 189.691 39.4467 190.483 41.148C191.304 42.82 191.715 44.8293 191.715 47.176C191.715 49.4933 191.319 51.5027 190.527 53.204C189.735 54.9053 188.62 56.2107 187.183 57.12C185.775 58.0293 184.132 58.484 182.255 58.484C180.906 58.484 179.644 58.2053 178.471 57.648C177.327 57.0907 176.447 56.3427 175.831 55.404V62.356C175.831 63.6467 175.479 64.6293 174.775 65.304C174.1 65.9787 173.132 66.316 171.871 66.316ZM179.791 52.72C180.964 52.72 181.932 52.28 182.695 51.4C183.458 50.52 183.839 49.112 183.839 47.176C183.839 45.2107 183.458 43.8027 182.695 42.952C181.932 42.072 180.964 41.632 179.791 41.632C178.588 41.632 177.606 42.072 176.843 42.952C176.08 43.8027 175.699 45.2107 175.699 47.176C175.699 49.112 176.08 50.52 176.843 51.4C177.606 52.28 178.588 52.72 179.791 52.72ZM200.833 58.396C199.572 58.396 198.604 58.0587 197.929 57.384C197.255 56.7093 196.917 55.7267 196.917 54.436V42.116H195.773C193.808 42.116 192.825 41.148 192.825 39.212C192.825 37.3053 193.808 36.352 195.773 36.352H196.917C197.064 33.3893 197.944 31.16 199.557 29.664C201.171 28.168 203.532 27.2587 206.641 26.936L207.917 26.804C208.856 26.6867 209.604 26.804 210.161 27.156C210.719 27.4787 211.1 27.9187 211.305 28.476C211.511 29.0333 211.555 29.6053 211.437 30.192C211.349 30.7493 211.129 31.2333 210.777 31.644C210.425 32.0547 209.956 32.2893 209.369 32.348L208.753 32.392C207.257 32.48 206.216 32.8027 205.629 33.36C205.043 33.888 204.749 34.6653 204.749 35.692V36.352H207.257C209.223 36.352 210.205 37.3053 210.205 39.212C210.205 41.148 209.223 42.116 207.257 42.116H204.749V54.436C204.749 57.076 203.444 58.396 200.833 58.396ZM220.985 58.484C218.14 58.484 216.057 57.736 214.737 56.24C213.417 54.7147 212.757 52.4267 212.757 49.376V30.544C212.757 27.904 214.048 26.584 216.629 26.584C217.891 26.584 218.859 26.9213 219.533 27.596C220.237 28.2707 220.589 29.2533 220.589 30.544V49.112C220.589 50.1973 220.795 50.9893 221.205 51.488C221.645 51.9867 222.203 52.236 222.877 52.236C223.083 52.236 223.288 52.2213 223.493 52.192C223.728 52.1333 223.977 52.0893 224.241 52.06C224.769 52.06 225.151 52.2507 225.385 52.632C225.62 53.0133 225.737 53.7907 225.737 54.964C225.737 55.9907 225.532 56.768 225.121 57.296C224.711 57.7947 224.08 58.1173 223.229 58.264C222.995 58.3227 222.657 58.3667 222.217 58.396C221.777 58.4547 221.367 58.484 220.985 58.484ZM238.767 58.484C236.362 58.484 234.265 58.0293 232.475 57.12C230.686 56.2107 229.293 54.9053 228.295 53.204C227.298 51.5027 226.799 49.4933 226.799 47.176C226.799 44.8293 227.298 42.82 228.295 41.148C229.293 39.4467 230.686 38.1413 232.475 37.232C234.265 36.3227 236.362 35.868 238.767 35.868C241.173 35.868 243.27 36.3227 245.059 37.232C246.849 38.1413 248.227 39.4467 249.195 41.148C250.193 42.82 250.691 44.8293 250.691 47.176C250.691 49.4933 250.193 51.5027 249.195 53.204C248.227 54.9053 246.849 56.2107 245.059 57.12C243.27 58.0293 241.173 58.484 238.767 58.484ZM238.767 52.72C239.941 52.72 240.909 52.28 241.671 51.4C242.434 50.52 242.815 49.112 242.815 47.176C242.815 45.2107 242.434 43.8027 241.671 42.952C240.909 42.072 239.941 41.632 238.767 41.632C237.565 41.632 236.582 42.072 235.819 42.952C235.057 43.8027 234.675 45.2107 234.675 47.176C234.675 49.112 235.057 50.52 235.819 51.4C236.582 52.28 237.565 52.72 238.767 52.72ZM263.138 58.396C261.084 58.396 259.632 57.3987 258.782 55.404L252.798 40.928C252.211 39.5787 252.196 38.42 252.754 37.452C253.311 36.4547 254.382 35.956 255.966 35.956C256.875 35.956 257.608 36.176 258.166 36.616C258.752 37.0267 259.295 37.848 259.794 39.08L263.534 48.892L267.538 38.244C268.124 36.7187 269.18 35.956 270.706 35.956C271.556 35.956 272.231 36.1467 272.73 36.528C273.228 36.9093 273.624 37.4813 273.918 38.244L277.966 49.112L281.838 38.816C282.248 37.7307 282.776 36.9827 283.422 36.572C284.067 36.1613 284.756 35.956 285.49 35.956C286.986 35.956 287.954 36.4693 288.394 37.496C288.834 38.4933 288.775 39.652 288.218 40.972L282.278 55.36C281.427 57.384 279.99 58.396 277.966 58.396C275.883 58.396 274.431 57.384 273.61 55.36L270.442 47.352L267.406 55.272C266.584 57.3547 265.162 58.396 263.138 58.396Z" fill="#575F85"/>
<path fill-rule="evenodd" clip-rule="evenodd" d="M83.8026 50.0781C84.1178 47.9328 84.2812 45.7361 84.2812 43.5C84.2812 41.5516 84.1572 39.6331 83.9167 37.7525C83.1287 39.337 82.2446 40.8438 81.3298 42.3214C81.2377 42.4703 81.1456 42.6205 81.0531 42.7714C79.934 44.5961 78.7596 46.5111 76.975 47.3561C75.3206 48.1392 73.6802 47.2348 72.3791 45.9631C70.5032 44.1301 69.0367 41.5626 67.7103 39.1371C66.9637 37.7741 66.2701 36.3695 65.5765 34.9649L65.5765 34.9647C65.0041 33.8056 64.4317 32.6464 63.8295 31.5106C62.6377 29.2618 61.1151 26.968 59.127 25.7518C57.4782 24.7435 55.7817 25.2286 54.332 26.4864C52.8963 27.7303 51.7523 29.5009 50.7456 31.2507C49.7557 32.9728 48.8893 34.7989 48.0565 36.6388C47.4864 37.8999 46.9404 39.1791 46.3942 40.4586C45.3902 42.8107 44.3857 45.1639 43.2306 47.408C42.1987 49.4108 40.6649 52.3768 38.4889 52.4635C37.4879 52.5016 36.6046 51.7566 35.926 50.9215C34.6978 49.4073 33.8818 47.4115 33.1247 45.5161C32.2502 43.3244 31.5144 41.0522 30.7788 38.7805C29.6815 35.3923 28.5847 32.0052 27.0286 28.8876C25.9322 26.6908 24.2413 23.801 21.8579 24.0678C20.955 24.1683 20.1165 24.7504 19.3875 25.3741C18.4369 26.1884 17.5957 27.1898 16.7825 28.1981C16.1471 28.9832 15.5287 29.7879 14.9105 30.5924L14.9104 30.5925C14.5902 31.0093 14.27 31.4259 13.9475 31.8398C13.2358 32.7517 12.4966 33.6235 11.7566 34.4964C11.3859 34.9337 11.0149 35.3712 10.6471 35.8141C8.76875 38.0745 7.25599 40.732 5.74787 43.3814L5.74783 43.3815C5.10591 44.5092 4.46482 45.6354 3.79674 46.7289C2.91307 48.1769 1.87518 49.8384 0.639047 51.0888C0.805682 52.0665 1.00395 53.0329 1.23272 53.987C2.53628 52.3727 3.61871 50.4957 4.68613 48.6448L4.76695 48.5047C4.95398 48.1809 5.14042 47.8566 5.32687 47.5323L5.32691 47.5322C6.36766 45.7218 7.40864 43.911 8.55247 42.1949C9.39597 40.9309 10.3426 39.8112 11.2931 38.6869L11.2932 38.6869L11.2934 38.6867C11.6351 38.2824 11.9774 37.8776 12.3156 37.4652C13.0262 36.5987 13.7129 35.6993 14.4 34.7996C15.5509 33.2922 16.7026 31.7839 17.9686 30.4278C19.351 28.9482 21.098 27.4721 23.0216 27.9954C24.0226 28.2656 24.8807 29.0764 25.5817 29.96C26.7033 31.3703 27.5502 33.1132 28.3017 34.8422C29.448 37.4749 30.3459 40.245 31.2438 43.0148L31.2438 43.0149C32.2106 45.9975 33.1773 48.9797 34.4538 51.7895C35.41 53.8962 37.2355 57.4028 39.5713 55.9267C40.5415 55.3134 41.2846 54.1942 41.9211 53.1374C42.7988 51.6752 43.5391 50.0882 44.2541 48.5012C44.8218 47.2405 45.3697 45.9663 45.9177 44.6921L45.9178 44.6917L45.918 44.6914C46.986 42.2079 48.054 39.7242 49.2678 37.3405C50.1147 35.6738 51.0428 34.0522 52.1196 32.5934C53.2889 31.0099 54.7498 29.4472 56.522 29.0834C58.3138 28.7161 59.9458 29.8561 61.2553 31.2594C62.9434 33.0716 64.1547 35.3827 65.3156 37.7112C65.4608 38.0027 65.6056 38.2945 65.7504 38.5863L65.7504 38.5864L65.7505 38.5865C66.943 40.9897 68.1359 43.3936 69.5162 45.6461C70.8004 47.7389 72.3399 50.2303 74.4009 51.197C75.9235 51.9108 77.376 51.1416 78.5397 49.8872C79.5947 48.7465 80.4519 47.2833 81.2841 45.8627L81.2841 45.8627C81.4429 45.5917 81.6007 45.3223 81.7588 45.057C82.6365 43.5844 83.4244 42.0598 84.1255 40.4798V41.7757H84.1227C83.2842 43.5151 82.3252 45.1575 81.3298 46.7653C81.2377 46.9142 81.1456 47.0644 81.0531 47.2152C79.934 49.0399 78.7596 50.955 76.975 51.7999C75.3206 52.583 73.6802 51.6786 72.3791 50.407C70.5032 48.574 69.0367 46.0064 67.7103 43.5809C66.9637 42.2179 66.2701 40.8133 65.5765 39.4087L65.5765 39.4086C65.0041 38.2494 64.4317 37.0903 63.8295 35.9545C62.6377 33.7057 61.1151 31.4118 59.127 30.1956C57.4782 29.1873 55.7817 29.6724 54.332 30.9302C52.8963 32.1741 51.7523 33.9448 50.7456 35.6946C49.7557 37.4167 48.8893 39.2428 48.0565 41.0827C47.4864 42.3438 46.9404 43.623 46.3942 44.9025C45.3902 47.2545 44.3857 49.6077 43.2306 51.8519C42.1987 53.8547 40.6649 56.8207 38.4889 56.9073C37.4879 56.9454 36.6046 56.2005 35.926 55.3654C34.6978 53.8512 33.8818 51.8554 33.1247 49.96C32.2502 47.7682 31.5144 45.496 30.7788 43.2244C29.6815 39.8362 28.5847 36.4491 27.0286 33.3315C25.9322 31.1346 24.2413 28.2448 21.8579 28.5116C20.955 28.6121 20.1165 29.1943 19.3875 29.818C18.4369 30.6322 17.5957 31.6336 16.7825 32.6419C16.147 33.4272 15.5286 34.2319 14.9104 35.0364L14.91 35.0369L14.9099 35.0371C14.5898 35.4536 14.2698 35.87 13.9475 36.2836C13.2358 37.1955 12.4966 38.0674 11.7566 38.9403C11.3859 39.3775 11.0149 39.8151 10.6471 40.258C8.76875 42.5183 7.25599 45.1759 5.74787 47.8253L5.74783 47.8253C5.10591 48.953 4.46482 50.0793 3.79674 51.1727C3.10195 52.3112 2.31182 53.5817 1.40496 54.6806C1.62534 55.5384 1.87048 56.3858 2.13953 57.222C3.05713 55.9134 3.87595 54.4935 4.68613 53.0887L4.76695 52.9485C4.95398 52.6248 5.14042 52.3005 5.32687 51.9761L5.32691 51.976C6.36766 50.1657 7.40864 48.3549 8.55247 46.6388C9.39597 45.3748 10.3426 44.255 11.2931 43.1308L11.2932 43.1307L11.2934 43.1305C11.6351 42.7263 11.9774 42.3214 12.3156 41.9091C13.0262 41.0426 13.7129 40.1432 14.4 39.2434L14.4 39.2434C15.5509 37.7361 16.7026 36.2278 17.9686 34.8716C19.351 33.3921 21.098 31.916 23.0216 32.4392C24.0226 32.7095 24.8807 33.5203 25.5817 34.4039C26.7033 35.8141 27.5502 37.557 28.3017 39.286C29.448 41.9188 30.3459 44.6889 31.2438 47.4587L31.2438 47.4587C32.2106 50.4413 33.1773 53.4235 34.4538 56.2334C35.41 58.3401 37.2355 61.8467 39.5713 60.3706C40.5415 59.7573 41.2846 58.6381 41.9211 57.5812C42.7988 56.119 43.5391 54.532 44.2541 52.9451C44.8217 51.6845 45.3696 50.4104 45.9176 49.1362L45.9177 49.1359L45.9178 49.1356L45.918 49.1353C46.986 46.6517 48.054 44.1681 49.2678 41.7843C50.1147 40.1176 51.0428 38.496 52.1196 37.0373C53.2889 35.4538 54.7498 33.891 56.522 33.5272C58.3138 33.1599 59.9458 34.2999 61.2553 35.7032C62.9434 37.5154 64.1547 39.8266 65.3156 42.1551C65.4608 42.4466 65.6056 42.7384 65.7504 43.0302L65.7504 43.0303L65.7505 43.0304C66.943 45.4335 68.1359 47.8375 69.5162 50.0899C70.8004 52.1828 72.3399 54.6741 74.4009 55.6408C75.9235 56.3546 77.376 55.5854 78.5397 54.3311C79.5947 53.1904 80.4519 51.7271 81.2841 50.3066L81.2841 50.3065C81.4429 50.0356 81.6007 49.7662 81.7588 49.5009C82.6365 48.0282 83.4244 46.5036 84.1255 44.9236V46.2195H84.1227C83.2842 47.9589 82.3252 49.6014 81.3298 51.2091C81.2377 51.358 81.1456 51.5082 81.0531 51.659C79.934 53.4838 78.7596 55.3988 76.975 56.2438C75.3206 57.0268 73.6802 56.1225 72.3791 54.8508C70.5032 53.0178 69.0367 50.4503 67.7103 48.0248C66.9637 46.6618 66.2701 45.2572 65.5765 43.8526L65.5765 43.8524C65.0041 42.6933 64.4317 41.5341 63.8295 40.3983C62.6377 38.1495 61.1151 35.8557 59.127 34.6395C57.4782 33.6312 55.7817 34.1163 54.332 35.3741C52.8963 36.618 51.7523 38.3886 50.7456 40.1384C49.7557 41.8605 48.8893 43.6866 48.0565 45.5265C47.4864 46.7876 46.9404 48.0668 46.3942 49.3463C45.3902 51.6984 44.3857 54.0516 43.2306 56.2957C42.1987 58.2985 40.6649 61.2645 38.4889 61.3512C37.4879 61.3893 36.6046 60.6443 35.926 59.8092C34.6978 58.295 33.8818 56.2992 33.1247 54.4038C32.2502 52.2121 31.5144 49.9399 30.7788 47.6682C29.6815 44.28 28.5847 40.8929 27.0286 37.7753C25.9322 35.5785 24.2413 32.6887 21.8579 32.9555C20.955 33.056 20.1165 33.6381 19.3875 34.2618C18.4369 35.0761 17.5957 36.0775 16.7825 37.0858C16.147 37.871 15.5286 38.6758 14.9104 39.4803L14.91 39.4807L14.9099 39.4809C14.5898 39.8974 14.2698 40.3139 13.9475 40.7275C13.2358 41.6394 12.4966 42.5112 11.7566 43.3841C11.3859 43.8214 11.0149 44.2589 10.6471 44.7018C8.76875 46.9622 7.25599 49.6197 5.74787 52.2691L5.74783 52.2692C5.10591 53.3969 4.46482 54.5231 3.79674 55.6166C3.35561 56.3394 2.87605 57.1155 2.35258 57.867C2.60706 58.618 2.88093 59.3596 3.17357 60.0912C3.69461 59.2518 4.19198 58.3894 4.68613 57.5325L4.76695 57.3924C4.95398 57.0686 5.14042 56.7443 5.32687 56.42L5.32691 56.4199C6.36766 54.6095 7.40864 52.7987 8.55247 51.0826C9.39597 49.8186 10.3426 48.6989 11.2931 47.5746L11.2932 47.5746L11.2934 47.5743C11.6351 47.1701 11.9774 46.7652 12.3156 46.3529C13.0262 45.4864 13.7129 44.587 14.4 43.6872L14.4 43.6872C15.5509 42.1799 16.7026 40.6716 17.9686 39.3155C19.351 37.8359 21.098 36.3598 23.0216 36.883C24.0226 37.1533 24.8807 37.9641 25.5817 38.8477C26.7033 40.258 27.5502 42.0009 28.3017 43.7299C29.448 46.3626 30.3459 49.1327 31.2438 51.9025L31.2438 51.9026C32.2106 54.8851 33.1773 57.8673 34.4538 60.6772C35.41 62.7839 37.2355 66.2905 39.5713 64.8144C40.5415 64.2011 41.2846 63.0819 41.9211 62.0251C42.7988 60.5629 43.5391 58.9759 44.2541 57.3889C44.8217 56.1284 45.3695 54.8544 45.9174 53.5804L45.9176 53.5801L45.9177 53.5797L45.9178 53.5794L45.918 53.5791C46.986 51.0956 48.054 48.6119 49.2678 46.2282C50.1147 44.5615 51.0428 42.9399 52.1196 41.4811C53.2889 39.8976 54.7498 38.3349 56.522 37.9711C58.3138 37.6038 59.9458 38.7438 61.2553 40.1471C62.9434 41.9593 64.1547 44.2704 65.3156 46.5989C65.4608 46.8904 65.6056 47.1822 65.7504 47.474L65.7504 47.4741L65.7505 47.4742C66.943 49.8774 68.1359 52.2813 69.5162 54.5338C70.8004 56.6266 72.3399 59.118 74.4009 60.0847C75.9235 60.7985 77.376 60.0292 78.5397 58.7749C79.5947 57.6342 80.4519 56.171 81.2841 54.7504L81.2841 54.7504C81.4429 54.4794 81.6007 54.21 81.7588 53.9447C82.5042 52.694 83.1849 51.4059 83.8026 50.0781ZM81.7588 40.6132C82.4963 39.3758 83.1704 38.1017 83.7828 36.7889C83.6619 35.9831 83.5196 35.1846 83.3565 34.394C82.7189 35.5872 82.0335 36.741 81.3298 37.8776C81.2377 38.0265 81.1456 38.1767 81.0531 38.3275C79.934 40.1522 78.7596 42.0673 76.975 42.9122C75.3206 43.6953 73.6802 42.7909 72.3791 41.5193C70.5032 39.6863 69.0367 37.1187 67.7103 34.6932C66.9637 33.3302 66.2701 31.9257 65.5765 30.5211C65.0041 29.3618 64.4317 28.2026 63.8295 27.0668C62.6377 24.818 61.1151 22.5242 59.127 21.3079C57.4782 20.2996 55.7817 20.7847 54.332 22.0425C52.8963 23.2865 51.7523 25.0571 50.7456 26.8069C49.7557 28.529 48.8893 30.3551 48.0565 32.195C47.4864 33.4561 46.9404 34.7353 46.3942 36.0148C45.3902 38.3668 44.3857 40.72 43.2306 42.9642C42.1987 44.967 40.6649 47.933 38.4889 48.0196C37.4879 48.0578 36.6046 47.3128 35.926 46.4777C34.6978 44.9635 33.8818 42.9677 33.1247 41.0723C32.2502 38.8805 31.5144 36.6083 30.7788 34.3367C29.6815 30.9485 28.5847 27.5614 27.0286 24.4438C25.9322 22.247 24.2413 19.3571 21.8579 19.624C20.955 19.7244 20.1165 20.3066 19.3875 20.9303C18.4369 21.7445 17.5957 22.7459 16.7825 23.7542C16.147 24.5394 15.5286 25.3442 14.9104 26.1487C14.5902 26.5654 14.27 26.9821 13.9475 27.396C13.2358 28.3078 12.4966 29.1797 11.7566 30.0526C11.3859 30.4898 11.0149 30.9274 10.6471 31.3703C8.76876 33.6306 7.256 36.2882 5.74788 38.9376C5.10593 40.0653 4.46483 41.1915 3.79674 42.2851C2.7974 43.9226 1.60081 45.8332 0.143316 47.1134C0.230686 48.2102 0.357471 49.2954 0.522207 50.3676C0.706341 50.1696 0.884785 49.9649 1.05714 49.7573C2.43979 48.0961 3.57115 46.1344 4.68613 44.201L4.76695 44.0608C4.95398 43.7371 5.14042 43.4128 5.32687 43.0884L5.32691 43.0884C6.36766 41.278 7.40864 39.4672 8.55247 37.7511C9.39597 36.4871 10.3426 35.3674 11.2931 34.2431L11.2932 34.2431L11.2934 34.2428C11.6351 33.8386 11.9774 33.4337 12.3156 33.0214C13.0262 32.1549 13.7129 31.2555 14.3999 30.3558L14.4 30.3557C15.5509 28.8484 16.7026 27.3401 17.9686 25.9839C19.351 24.5044 21.098 23.0283 23.0216 23.5515C24.0226 23.8218 24.8807 24.6326 25.5817 25.5162C26.7033 26.9264 27.5502 28.6693 28.3017 30.3984C29.448 33.0311 30.3459 35.8012 31.2438 38.571C32.2106 41.5536 33.1773 44.5358 34.4538 47.3457C35.41 49.4524 37.2355 52.959 39.5713 51.4829C40.5415 50.8696 41.2846 49.7504 41.9211 48.6936C42.7988 47.2313 43.5391 45.6444 44.2541 44.0574C44.8218 42.7966 45.3698 41.5223 45.9178 40.2479L45.918 40.2476C46.986 37.764 48.054 35.2804 49.2678 32.8966C50.1147 31.23 51.0428 29.6083 52.1196 28.1496C53.2889 26.5661 54.7498 25.0033 56.522 24.6395C58.3138 24.2722 59.9458 25.4122 61.2553 26.8155C62.9434 28.6277 64.1547 30.9389 65.3156 33.2674C65.4608 33.5589 65.6056 33.8507 65.7504 34.1425L65.7504 34.1426C66.943 36.5458 68.1359 38.9498 69.5162 41.2022C70.8004 43.2951 72.3399 45.7864 74.4009 46.7532C75.9235 47.4669 77.376 46.6977 78.5397 45.4434C79.5947 44.3027 80.4519 42.8394 81.2841 41.4189L81.2841 41.4188C81.4429 41.1479 81.6007 40.8785 81.7588 40.6132ZM83.1812 33.583C82.7363 34.4626 82.2623 35.3245 81.7588 36.1693C81.6007 36.4346 81.4429 36.704 81.2842 36.975C80.452 38.3955 79.5947 39.8588 78.5397 40.9995C77.376 42.2539 75.9235 43.0231 74.4009 42.3093C72.3399 41.3426 70.8004 38.8512 69.5162 36.7584C68.1359 34.5059 66.9429 32.1018 65.7503 29.6986C65.6055 29.4068 65.4608 29.115 65.3156 28.8235C64.1547 26.4951 62.9434 24.1839 61.2553 22.3717C59.9458 20.9684 58.3138 19.8284 56.522 20.1957C54.7498 20.5595 53.2889 22.1222 52.1196 23.7057C51.0428 25.1645 50.1147 26.7861 49.2678 28.4528C48.054 30.8366 46.986 33.3202 45.918 35.8037C45.3699 37.0782 44.8218 38.3527 44.2541 39.6135C43.5391 41.2005 42.7988 42.7875 41.9211 44.2497C41.2846 45.3065 40.5415 46.4257 39.5713 47.039C37.2355 48.5151 35.41 45.0085 34.4538 42.9018C33.1773 40.092 32.2106 37.1098 31.2438 34.1272C30.3459 31.3574 29.448 28.5873 28.3017 25.9545C27.5502 24.2255 26.7033 22.4826 25.5817 21.0723C24.8807 20.1888 24.0226 19.3779 23.0216 19.1077C21.098 18.5845 19.351 20.0605 17.9686 21.5401C16.7026 22.8962 15.5509 24.4045 14.4 25.9119C13.713 26.8116 13.0262 27.711 12.3156 28.5775C11.9773 28.99 11.635 29.3949 11.2932 29.7992C10.3426 30.9235 9.39598 32.0432 8.55247 33.3072C7.40861 35.0234 6.36761 36.8342 5.32685 38.6446C5.1404 38.969 4.95397 39.2933 4.76695 39.617L4.68615 39.7571C3.57116 41.6905 2.4398 43.6523 1.05714 45.3135C0.752963 45.6798 0.429827 46.0373 0.0899121 46.3645C0.0302806 45.4176 0 44.4625 0 43.5C0 19.4756 18.867 0 42.1406 0C62.1092 0 78.8339 14.337 83.1812 33.583ZM83.4945 51.909C82.8183 53.195 82.0845 54.4339 81.3298 55.653C81.2377 55.8019 81.1456 55.9521 81.0531 56.1029C79.934 57.9276 78.7596 59.8427 76.975 60.6876C75.3206 61.4707 73.6802 60.5663 72.3791 59.2947C70.5032 57.4617 69.0367 54.8941 67.7103 52.4686C66.9637 51.1056 66.2701 49.701 65.5765 48.2964L65.5765 48.2963C65.0041 47.1371 64.4317 45.9779 63.8295 44.8422C62.6377 42.5934 61.1151 40.2995 59.127 39.0833C57.4782 38.075 55.7817 38.5601 54.332 39.8179C52.8963 41.0618 51.7523 42.8325 50.7456 44.5823C49.7557 46.3044 48.8893 48.1304 48.0565 49.9704C47.4864 51.2315 46.9404 52.5106 46.3942 53.7902C45.3902 56.1422 44.3857 58.4954 43.2306 60.7396C42.1987 62.7423 40.6649 65.7084 38.4889 65.795C37.4879 65.8331 36.6046 65.0882 35.926 64.2531C34.6978 62.7389 33.8818 60.743 33.1247 58.8477C32.2502 56.6559 31.5144 54.3837 30.7788 52.1121C29.6815 48.7239 28.5847 45.3368 27.0286 42.2191C25.9322 40.0223 24.2413 37.1325 21.8579 37.3993C20.955 37.4998 20.1165 38.0819 19.3875 38.7056C18.4369 39.5199 17.5957 40.5213 16.7825 41.5296C16.147 42.3148 15.5286 43.1196 14.9104 43.9241L14.91 43.9246L14.9099 43.9248C14.5898 44.3413 14.2698 44.7577 13.9475 45.1713C13.2358 46.0832 12.4966 46.9551 11.7566 47.8279C11.3859 48.2652 11.0149 48.7027 10.6471 49.1457C8.76875 51.406 7.25599 54.0636 5.74787 56.713L5.74783 56.713C5.10591 57.8407 4.46482 58.9669 3.79674 60.0604C3.67253 60.264 3.54528 60.4717 3.41486 60.6819C9.86897 76.1617 24.7786 87 42.1406 87C62.6274 87 79.6997 71.9093 83.4945 51.909Z" fill="#1A234B"/>
</svg>
